<svg width="200" height="48" viewBox="0 0 200 48" fill="none" xmlns="http://www.w3.org/2000/svg">
<path d="M34.7031 29.5C33.8438 29.4219 33.0625 29.1094 32.4375 28.6016C31.8906 28.1719 31.1094 28.1719 30.5625 28.6016C29.0781 29.8125 26.3438 29.8125 24.8594 28.5625C24.3125 28.1328 23.5703 28.2109 23.0234 28.6406C21.5391 29.8125 18.8438 29.8125 17.3594 28.5625C16.8125 28.1328 16.0703 28.2109 15.5234 28.6406C14.8984 29.1094 14.1172 29.4219 13.2578 29.5C12.9453 29.5391 12.75 29.8125 12.75 30.125V31.375C12.75 31.7266 13.0234 32.0391 13.375 32C14.5078 31.9219 15.5625 31.5703 16.5 30.9844C18.6875 32.3516 21.8516 32.3516 24 30.9844C26.1875 32.3516 29.3516 32.3516 31.5 30.9844C32.3984 31.5703 33.4922 31.9219 34.5859 32C34.9375 32.0391 35.2109 31.7266 35.2109 31.375V30.1641C35.25 29.8516 35.0156 29.5391 34.7031 29.5ZM34.7031 23.875C33.8438 23.7969 33.0625 23.4844 32.4375 22.9766C31.8906 22.5469 31.1094 22.5469 30.5625 22.9766C29.0781 24.1875 26.3438 24.1875 24.8594 22.9375C24.3125 22.5078 23.5703 22.5859 23.0234 23.0156C21.5391 24.1875 18.8438 24.1875 17.3594 22.9375C16.8125 22.5078 16.0703 22.5859 15.5234 23.0156C14.8984 23.4844 14.1172 23.7969 13.2578 23.875C12.9453 23.9141 12.75 24.1875 12.75 24.5V25.75C12.75 26.1016 13.0234 26.4141 13.375 26.375C14.5078 26.2969 15.5625 25.9453 16.5 25.3594C18.6875 26.7266 21.8516 26.7266 24 25.3594C26.1875 26.7266 29.3516 26.7266 31.5 25.3594C32.3984 25.9453 33.4922 26.2969 34.5859 26.375C34.9375 26.4141 35.2109 26.1016 35.2109 25.75V24.5391C35.25 24.2266 35.0156 23.9141 34.7031 23.875ZM34.7031 18.25C33.8438 18.1719 33.0625 17.8594 32.4375 17.3516C31.8906 16.9219 31.1094 16.9219 30.5625 17.3516C29.0781 18.5625 26.3438 18.5625 24.8594 17.3125C24.3125 16.8828 23.5703 16.9609 23.0234 17.3906C21.5391 18.5625 18.8438 18.5625 17.3594 17.3125C16.8125 16.8828 16.0703 16.9609 15.5234 17.3906C14.8984 17.8594 14.1172 18.1719 13.2578 18.25C12.9453 18.2891 12.75 18.5625 12.75 18.875V20.125C12.75 20.4766 13.0234 20.7891 13.375 20.75C14.5078 20.6719 15.5625 20.3203 16.5 19.7344C18.6875 21.1016 21.8516 21.1016 24 19.7344C26.1875 21.1016 29.3516 21.1016 31.5 19.7344C32.3984 20.3203 33.4922 20.6719 34.5859 20.75C34.9375 20.7891 35.2109 20.4766 35.2109 20.125V18.9141C35.25 18.6016 35.0156 18.2891 34.7031 18.25Z" fill="white"/>
<path d="M61.215 9.455C61.02 8.93 60.645 8.09 60.285 7.46L58.755 7.94C59.07 8.6 59.445 9.485 59.595 10.04L61.215 9.455ZM55.905 8.45H53.19C53.055 8.06 52.89 7.61 52.725 7.25L51.225 7.58C51.315 7.835 51.42 8.15 51.525 8.45H48.63V9.86H55.905V8.45ZM57.78 17.51H59.145V18.995H57.78V17.51ZM59.145 13.07H57.78V11.675H59.145V13.07ZM59.145 16.01H57.78V14.57H59.145V16.01ZM54.375 16.535V18.665C54.165 18.065 53.85 17.345 53.58 16.76L52.62 17.075C52.74 17.345 52.845 17.63 52.965 17.915L52.185 18.08C52.305 17.615 52.41 17.09 52.53 16.535H54.375ZM62.55 18.995H60.735V17.51H62.28V16.01H60.735V14.57H62.28V13.07H60.735V11.675H62.4V10.085H57.99C58.29 9.305 58.56 8.48 58.785 7.685L57.195 7.31C56.775 8.96 56.1 10.655 55.29 11.9V10.265H53.94V12.245C53.7 12.035 53.415 11.78 53.1 11.51C53.4 11.195 53.685 10.88 53.94 10.565L52.92 10.175C52.74 10.4 52.53 10.64 52.305 10.865C52.005 10.625 51.705 10.4 51.435 10.19L50.73 10.82C51 11.045 51.315 11.285 51.6 11.525C51.255 11.855 50.88 12.155 50.52 12.41C50.775 12.575 51.21 12.92 51.39 13.1C51.705 12.845 52.05 12.56 52.395 12.23C52.755 12.545 53.085 12.845 53.295 13.085L53.94 12.485V13.22H50.505V10.265H49.215V14.405H51.615C51.57 14.66 51.525 14.915 51.48 15.185H50.355V14.765H48.93V15.185H48.585V16.535H48.93V21.275H50.355V16.535H51.225C51.075 17.195 50.94 17.81 50.79 18.335L50.385 18.41L50.76 19.595C51.54 19.385 52.44 19.16 53.34 18.95C53.415 19.175 53.49 19.4 53.535 19.58L54.375 19.265V19.805C54.375 19.955 54.315 19.985 54.165 20C53.985 20.015 53.43 20.015 52.935 19.985C53.1 20.36 53.25 20.87 53.28 21.245C54.165 21.245 54.81 21.245 55.23 21.05C55.68 20.825 55.8 20.48 55.8 19.82V15.185H52.785L52.935 14.405H55.29V12.905C55.605 13.16 55.905 13.46 56.085 13.655L56.235 13.445V21.275H57.78V20.615H62.535L62.55 18.995ZM76.41 7.835H74.52V9.56H71.46V7.295H69.57V9.56H66.585V7.835H64.785V11.15H76.41V7.835ZM77.1 13.565V12.005H64.74V14.795C64.74 16.37 64.62 18.485 63.375 19.985C63.78 20.195 64.53 20.795 64.815 21.14C66.255 19.445 66.525 16.715 66.525 14.825V13.565H77.1ZM77.295 17H72.9V15.875H76.635V14.375H67.425V15.875H71.01V17H66.78V18.56H71.01V21.305H72.9V18.56H77.295V17ZM83.61 15.635V13.985H84.585V15.635H83.61ZM87.105 13.985V15.635H86.13V13.985H87.105ZM86.76 17.45C86.925 17.735 87.09 18.05 87.24 18.38L86.13 18.455V16.985H88.56V12.635H86.13V11.63H88.575V10.22H82.2V11.63H84.585V12.635H82.26V16.985H84.585V18.545C83.445 18.62 82.41 18.68 81.585 18.71L81.705 20.315C83.355 20.18 85.605 20 87.81 19.805C87.915 20.18 88.005 20.54 88.065 20.825L89.52 20.345C89.325 19.43 88.74 18.05 88.125 17.015L86.76 17.45ZM80.055 7.895V13.115C80.055 15.365 79.92 18.365 78.405 20.39C78.81 20.555 79.545 21.05 79.845 21.35C81.51 19.145 81.75 15.605 81.75 13.115V9.56H89.1C89.1 15.95 89.1 21.305 91.26 21.305C92.205 21.305 92.52 20.45 92.685 18.68C92.37 18.335 91.995 17.75 91.71 17.255C91.68 18.455 91.59 19.355 91.455 19.355C90.765 19.355 90.78 13.79 90.855 7.895H80.055ZM104.835 9.62H100.965V8.9H104.835V9.62ZM104.835 11.51H100.965V10.79H104.835V11.51ZM106.485 7.67H99.39V12.74H106.485V7.67ZM107.505 14.81V13.31H98.07V14.81H99.765C99.39 15.395 98.925 15.935 98.385 16.4L98.07 15.125L96.87 15.65V12.11H98.28V10.43H96.87V7.475H95.22V10.43H93.72V12.11H95.22V16.34C94.515 16.625 93.885 16.88 93.375 17.075L94.035 18.875C94.95 18.425 96.03 17.885 97.11 17.345C97.485 17.585 98.055 18.11 98.28 18.395C98.895 18.005 99.48 17.495 100.02 16.925H100.92C100.125 18.035 98.97 19.085 97.86 19.64C98.28 19.895 98.745 20.345 99.03 20.69C100.335 19.865 101.73 18.365 102.54 16.925H103.425C102.78 18.32 101.775 19.655 100.635 20.375C101.085 20.615 101.595 21.02 101.895 21.365C103.11 20.42 104.28 18.605 104.895 16.925H105.48C105.315 18.74 105.135 19.505 104.925 19.73C104.805 19.865 104.685 19.895 104.475 19.895C104.28 19.895 103.89 19.895 103.41 19.85C103.635 20.225 103.785 20.825 103.815 21.245C104.415 21.275 104.985 21.26 105.33 21.215C105.705 21.17 106.035 21.05 106.32 20.705C106.725 20.27 106.965 19.07 107.175 16.145C107.19 15.935 107.205 15.53 107.205 15.53H101.115C101.265 15.29 101.415 15.05 101.535 14.81H107.505ZM113.055 9.08C112.455 8.6 111.27 7.94 110.4 7.535L109.41 8.735C110.28 9.2 111.45 9.92 111.99 10.43L113.055 9.08ZM112.02 13.295C111.48 12.815 110.37 12.155 109.53 11.78L108.57 12.995C109.41 13.445 110.49 14.135 111 14.645L112.02 13.295ZM110.52 21.065C111.18 19.595 111.855 17.855 112.41 16.265L111.045 15.275C110.4 17.03 109.575 18.935 108.96 20.09L110.52 21.065ZM118.2 17.54L118.68 17.21C118.38 16.835 117.84 16.355 117.345 15.95H119.76C119.715 16.58 119.67 17.09 119.61 17.54H118.2ZM116.625 15.95L116.055 16.31C116.49 16.67 117 17.135 117.36 17.54H115.095C115.17 17.03 115.245 16.505 115.32 15.95H116.625ZM116.97 12.905L116.46 13.235C116.835 13.565 117.255 13.97 117.555 14.33H115.53C115.59 13.85 115.65 13.385 115.71 12.905H116.97ZM119.91 12.905C119.895 13.415 119.865 13.88 119.85 14.33H118.41L118.83 14.045C118.575 13.715 118.11 13.28 117.69 12.905H119.91ZM122.55 15.95V14.33H121.485C121.515 13.655 121.56 12.935 121.59 12.14C121.605 11.915 121.605 11.39 121.605 11.39H114.51C114.705 11.075 114.87 10.745 115.05 10.4H122.16V8.81H115.785C115.935 8.45 116.07 8.075 116.19 7.73L114.465 7.295C113.955 8.945 113.07 10.67 112.065 11.735C112.485 11.96 113.25 12.44 113.595 12.71C113.775 12.47 113.97 12.215 114.15 11.945C114.075 12.71 113.985 13.52 113.88 14.33H112.335V15.95H113.67C113.505 17.105 113.325 18.2 113.16 19.055H119.355C119.295 19.295 119.22 19.43 119.16 19.52C118.995 19.715 118.86 19.76 118.605 19.76C118.305 19.76 117.72 19.76 117.06 19.7C117.315 20.105 117.495 20.735 117.525 21.155C118.23 21.2 118.95 21.2 119.4 21.125C119.895 21.05 120.27 20.915 120.615 20.45C120.795 20.195 120.945 19.775 121.065 19.055H122.175V17.54H121.26C121.305 17.075 121.35 16.55 121.395 15.95H122.55ZM128.04 9.41C127.41 8.855 126.12 8.075 125.175 7.595L124.125 8.84C125.07 9.365 126.345 10.235 126.915 10.805L128.04 9.41ZM127.38 13.07C126.72 12.53 125.385 11.81 124.455 11.345L123.45 12.62C124.41 13.145 125.715 13.955 126.315 14.495L127.38 13.07ZM125.355 20.93C126.135 19.43 126.93 17.675 127.59 16.055L126.18 14.99C125.43 16.76 124.455 18.68 123.75 19.865L125.355 20.93ZM137.49 16.445H133.605V14.9H136.65V13.235H133.605V11.705H137.205V10.025H135.18C135.57 9.35 135.975 8.555 136.35 7.79L134.595 7.28C134.325 8.12 133.83 9.23 133.395 10.025H131.16L131.94 9.71C131.715 9.005 131.13 8 130.59 7.265L129 7.88C129.45 8.525 129.885 9.365 130.125 10.025H128.325V11.705H131.745V13.235H128.835V14.9H131.745V16.445H127.86V18.155H131.745V21.305H133.605V18.155H137.49V16.445ZM146.46 19.13V16.115H150.945V14.39H146.46V11.75H151.515V10.01H146.46V7.31H144.585V10.01H142.275C142.53 9.32 142.77 8.615 142.98 7.895L141.135 7.49C140.625 9.53 139.65 11.6 138.48 12.86C138.93 13.1 139.725 13.64 140.085 13.925C140.58 13.34 141.045 12.575 141.48 11.75H144.585V14.39H140.52V16.115H144.585V19.13H138.795V20.885H152.28V19.13H146.46ZM165.465 12.05C166.005 12.05 166.62 12.02 166.92 11.93C166.845 11.555 166.8 10.955 166.77 10.52C166.455 10.595 165.81 10.64 165.405 10.64H163.305C162.885 10.64 162.825 10.475 162.825 10.055V9.62H166.365V8.3H162.825V7.415H161.175V10.025C161.175 11.48 161.595 12.05 163.245 12.05H165.465ZM165.39 17.135C166.59 17.135 167.055 16.775 167.235 15.5C166.8 15.41 166.125 15.17 165.795 14.96C165.735 15.605 165.63 15.71 165.225 15.71H163.485C162.93 15.71 162.81 15.665 162.81 15.245V14.555H166.41V13.25H162.81V12.29H161.175V15.245C161.175 16.7 161.58 17.135 163.29 17.135H165.39ZM159.48 17.435C159.945 17.99 160.545 18.785 160.845 19.265L162.135 18.38C161.82 17.915 161.175 17.195 160.71 16.67L159.48 17.435ZM160.95 10.385C160.575 9.695 159.765 8.645 159.09 7.865L157.89 8.48C158.085 8.705 158.28 8.96 158.475 9.2L156.21 9.38C156.795 8.9 157.38 8.33 157.86 7.745L156.285 7.28C155.7 8.15 154.77 8.945 154.485 9.14C154.2 9.38 153.93 9.53 153.675 9.59C153.84 9.98 154.08 10.67 154.17 11C154.545 10.82 155.145 10.73 159.255 10.34C159.42 10.61 159.57 10.865 159.675 11.075L160.95 10.385ZM158.505 12.38V13.37C158.04 13.13 157.17 12.77 156.555 12.53L156.015 13.19V12.38H158.505ZM157.905 14.24L158.505 13.4V14.06L157.905 14.24ZM156.015 13.37C156.63 13.655 157.395 14.015 157.83 14.27C157.125 14.48 156.48 14.675 155.94 14.825C156 14.345 156.015 13.88 156.015 13.445V13.37ZM156.195 16.115C156.915 15.8 157.71 15.455 158.505 15.095V15.845C158.505 15.98 158.46 16.025 158.295 16.04C158.16 16.055 157.68 16.055 157.215 16.025C157.38 16.34 157.59 16.82 157.665 17.18C158.46 17.18 159.06 17.18 159.48 16.985C159.915 16.775 160.05 16.49 160.05 15.845V11.15H154.53V13.415C154.53 14.375 154.47 15.53 153.675 16.415C154.005 16.58 154.68 17.06 154.935 17.315C155.43 16.76 155.715 16.04 155.865 15.29L156.195 16.115ZM155.19 20.915C155.67 20.165 156.045 18.965 156.315 18.005L154.785 17.405C154.56 18.335 154.11 19.415 153.63 20.135L155.19 20.915ZM159.585 19.64C158.79 19.64 158.64 19.58 158.64 19.175V17.675H156.9V19.205C156.9 20.615 157.425 21.05 159.42 21.05H162.21C163.77 21.05 164.235 20.585 164.43 18.695C163.98 18.605 163.275 18.38 162.915 18.125C162.84 19.43 162.72 19.64 162.06 19.64H159.585ZM164.535 17.825C164.925 18.695 165.36 19.88 165.555 20.585L167.19 20.075C166.965 19.37 166.47 18.23 166.065 17.375L164.535 17.825ZM53.85 28.77H51.51L52.395 28.35C52.17 27.825 51.705 26.97 51.315 26.355L50.01 26.895C50.325 27.465 50.7 28.215 50.925 28.77H48.495V30.18H53.85V28.77ZM53.385 30.855H49.14V32.205H53.385V30.855ZM49.125 34.215H53.37V32.865H49.125V34.215ZM58.71 35.175V36.42H57.435V35.175H58.71ZM60.015 37.65V33.93H56.22V38.34H57.435V37.65H60.015ZM58.89 31.875V30.87H60.54V31.875H58.89ZM55.83 30.87H57.45V31.875H55.83V30.87ZM57.45 28.395V29.475H55.83V28.395H57.45ZM60.54 29.475H58.89V28.395H60.54V29.475ZM52.02 38.055H50.49V36.375H52.02V38.055ZM61.995 26.835H54.405V32.7C54.405 34.695 54.33 37.245 53.43 39.135V34.935H49.08V40.065H50.49V39.48H53.25C53.58 39.63 54.21 40.11 54.465 40.35C55.56 38.475 55.8 35.535 55.83 33.27H60.54V38.4C60.54 38.61 60.48 38.67 60.285 38.67C60.09 38.685 59.49 38.7 58.875 38.67C59.085 39.06 59.28 39.735 59.34 40.155C60.315 40.155 60.975 40.125 61.41 39.87C61.86 39.6 61.995 39.18 61.995 38.43V26.835ZM67.875 35.67H72.915V36.45H67.875V35.67ZM67.875 33.81H72.915V34.545H67.875V33.81ZM66.105 37.62H74.79V32.64H66.48C67.65 31.905 68.715 30.975 69.57 29.94V32.205H71.34V30.045C73.05 31.11 75.075 32.52 76.095 33.45L77.235 32.16C76.35 31.41 74.835 30.405 73.395 29.52H77.19V27.975H71.34V26.295H69.57V27.975H63.84V29.52H67.845C66.69 30.66 65.07 31.665 63.405 32.19C63.78 32.535 64.29 33.195 64.545 33.615C65.085 33.405 65.595 33.165 66.105 32.865V37.62ZM63.945 39.885H77.055V38.325H63.945V39.885ZM85.965 33.84C85.965 33.975 85.92 34.005 85.785 34.005C85.65 34.02 85.215 34.02 84.825 33.99C84.975 34.305 85.155 34.74 85.215 35.085C85.95 35.085 86.535 35.085 86.925 34.905C87.33 34.71 87.45 34.455 87.45 33.84V30.045H86.88V30.015H85.215V28.92H87.57V27.45H85.215V26.43H83.7V31.41H85.965V33.84ZM83.91 31.77C83.85 32.565 83.73 33.33 83.355 33.885C83.67 34.05 84.255 34.395 84.48 34.59C84.9 33.96 85.14 32.97 85.245 31.995L83.91 31.77ZM92.4 35.22H91.095C91.215 32.97 91.29 29.625 91.29 26.955H87.93V28.485H89.655C89.64 28.92 89.64 29.34 89.64 29.775H88.08V31.245H89.595C89.58 31.68 89.565 32.115 89.55 32.535H87.975V34.005H89.49C89.46 34.44 89.445 34.83 89.415 35.22H81.585L81.54 33.96H83.16V32.505H81.495L81.45 31.215H83.115V29.76H81.405L81.36 28.41C82.035 28.23 82.74 28.05 83.37 27.825L82.605 26.37C81.84 26.73 80.685 27.18 79.74 27.48L79.995 35.22H78.645V36.87H82.74C81.735 37.605 80.01 38.46 78.69 38.955C79.02 39.33 79.455 39.915 79.68 40.29C81.15 39.705 83.025 38.76 84.315 37.905L83.055 36.87H87.51L86.715 37.905C88.2 38.625 89.85 39.585 90.81 40.245L91.995 38.88C91.08 38.31 89.58 37.53 88.17 36.87H92.4V35.22ZM97.065 36.33H98.19V38.37H97.065V36.33ZM101.01 36.33V38.37H99.825V36.33H101.01ZM103.785 36.33V38.37H102.63V36.33H103.785ZM105.54 34.95H95.4V38.37H93.66V39.9H107.34V38.37H105.54V34.95ZM107.07 32.145H101.895V33.75H107.07V32.145ZM98.925 30.855H95.655V30.06H98.925V30.855ZM96.93 32.88H95.655V31.995H96.93V32.88ZM96.93 28.14V28.92H95.655V28.14H96.93ZM103.41 28.41C103.62 27.825 103.785 27.24 103.935 26.625L102.285 26.295C101.925 27.96 101.265 29.595 100.38 30.645V28.92H98.355V28.14H100.8V26.79H94.05V34.23H100.89V32.88H98.355V31.995H100.38V30.735C100.77 30.99 101.43 31.455 101.7 31.71C102.105 31.23 102.48 30.6 102.81 29.91H107.34V28.41H103.41ZM119.445 27.81H117.9V36.48H119.445V27.81ZM112.41 27.81C111.9 27.36 110.85 26.76 110.04 26.415L109.035 27.735C109.86 28.11 110.88 28.77 111.36 29.25L112.41 27.81ZM111.84 31.71C111.33 31.245 110.265 30.72 109.44 30.405L108.465 31.71C109.29 32.085 110.31 32.685 110.805 33.15L111.84 31.71ZM110.655 34.41C110.07 36.165 109.275 38.07 108.72 39.225L110.325 40.14C110.94 38.67 111.6 36.945 112.095 35.34L110.655 34.41ZM113.04 36.78C112.635 37.755 111.945 38.76 111.24 39.435C111.63 39.645 112.305 40.08 112.635 40.35C113.355 39.6 114.165 38.37 114.66 37.23L113.04 36.78ZM115.14 37.41C115.695 38.16 116.37 39.165 116.655 39.795L118.065 38.955C117.75 38.325 117.045 37.35 116.49 36.66L115.14 37.41ZM115.59 29.685H114.12V28.425H115.59V29.685ZM115.59 32.385H114.12V31.11H115.59V32.385ZM115.59 35.115H114.12V33.825H115.59V35.115ZM117.15 26.88H112.62V36.66H117.15V26.88ZM120.375 26.31V38.295C120.375 38.52 120.3 38.595 120.045 38.61C119.805 38.61 119.085 38.61 118.32 38.58C118.545 39.075 118.77 39.825 118.83 40.29C120 40.29 120.78 40.23 121.305 39.945C121.83 39.675 121.995 39.21 121.995 38.295V26.31H120.375ZM125.73 28.89H135.225V30.12H136.89V27.51H131.415C131.25 27.075 130.98 26.58 130.725 26.175L129.165 26.61C129.315 26.88 129.48 27.195 129.6 27.51H124.125V30.12H125.73V28.89ZM127.38 36.885H133.62V37.365H127.38V36.885ZM127.38 35.58H133.62V36.045H127.38V35.58ZM127.38 34.29H133.62V34.725H127.38V34.29ZM135.435 38.25V33.39H125.655V38.25H127.8C126.72 38.655 125.175 39 123.855 39.18C124.17 39.51 124.59 40.05 124.8 40.395C126.54 40.14 128.64 39.555 129.9 38.91L129 38.25H131.745L131.13 38.925C132.855 39.375 134.61 39.975 135.69 40.38L136.905 39.285C136.02 39 134.7 38.61 133.38 38.25H135.435ZM131.055 32.07L131.115 31.59H133.035L132.99 32.07H131.055ZM127.68 31.59H129.66L129.6 32.07H127.62L127.68 31.59ZM129.795 30.27L129.75 30.705H127.785L127.845 30.27H129.795ZM133.11 30.705H131.22L131.25 30.27H133.14L133.11 30.705ZM134.775 30.51L134.88 29.37H126.39L126.24 30.51H123.705V31.785H126.06L125.91 32.955H134.535L134.655 31.785H137.37V30.51H134.775ZM141.93 36.36V38.04H140.415V36.36H141.93ZM143.31 34.935H139.065V40.095H140.415V39.465H143.31V34.935ZM139.095 34.215H143.235V32.865H139.095V34.215ZM143.235 30.855H139.095V32.205H143.235V30.855ZM149.175 36.3C148.995 36.99 148.635 37.905 148.365 38.55H146.685L147.675 38.265C147.585 37.74 147.24 36.915 146.865 36.3H149.175ZM146.475 33.84H149.49V34.965H146.475V33.84ZM146.235 31.815H149.88V31.23C150.21 31.71 150.555 32.13 150.975 32.49H145.26C145.62 32.145 145.935 31.755 146.235 31.32V31.815ZM149.685 36.3H151.065V32.58C151.215 32.7 151.38 32.82 151.545 32.94C151.785 32.535 152.325 31.935 152.715 31.635C152.115 31.275 151.605 30.795 151.155 30.195C151.59 29.94 152.055 29.64 152.49 29.31L151.485 28.335C151.245 28.575 150.855 28.875 150.495 29.145C150.39 28.965 150.3 28.77 150.225 28.575C150.645 28.275 151.155 27.885 151.59 27.51L150.54 26.535C150.33 26.76 150.045 27.045 149.745 27.315C149.64 27 149.55 26.67 149.475 26.34L148.005 26.61C148.32 28.005 148.755 29.295 149.355 30.405H146.805C147.315 29.43 147.705 28.305 147.945 27.045L146.91 26.715L146.625 26.775H144.255V28.17H146.055C145.95 28.515 145.815 28.845 145.68 29.16C145.335 28.935 144.945 28.71 144.6 28.53L143.715 29.595V28.77H141.345L142.26 28.125C142.02 27.585 141.525 26.76 141.105 26.145L139.89 26.88C140.235 27.45 140.64 28.2 140.895 28.77H138.51V30.18H143.715V29.685C144.12 29.91 144.57 30.225 144.915 30.51C144.495 31.095 144 31.59 143.475 31.935C143.805 32.205 144.285 32.775 144.51 33.12C144.675 33 144.825 32.88 144.975 32.76V36.3H146.745L145.35 36.675C145.68 37.26 145.965 38.01 146.07 38.55H143.805V39.975H152.325V38.55H149.94C150.255 37.995 150.615 37.275 150.96 36.585L149.685 36.3ZM160.2 28.77H157.035L158.025 28.23C157.8 27.675 157.335 26.85 156.93 26.235L155.535 26.88C155.88 27.45 156.27 28.2 156.495 28.77H153.885V30.18H160.2V28.77ZM159.57 32.205V30.855H154.545V32.205H159.57ZM159.54 32.865H154.545V34.215H159.54V32.865ZM158.055 36.36V38.04H156.105V36.36H158.055ZM159.6 34.935H154.605V40.11H156.105V39.48H159.6V34.935ZM167.4 31.275H164.625V26.565H162.765V31.275H160.14V33.03H162.765V40.305H164.625V33.03H167.4V31.275ZM168.705 39.9H182.325V38.73H168.705V39.9ZM178.935 36.015H176.265V35.49H178.935V36.015ZM178.935 37.395H176.265V36.84H178.935V37.395ZM172.155 36.84H174.63V37.395H172.155V36.84ZM172.155 35.49H174.63V36.015H172.155V35.49ZM170.4 34.635V38.25H180.75V34.635H170.4ZM176.31 29.58H178.95V30.12H176.31V29.58ZM176.31 28.125H178.95V28.62H176.31V28.125ZM176.31 33.045V32.52H181.32V31.575H176.31V31.05H180.735V29.58H182.235V28.62H180.735V27.18H176.31V26.295H174.51V27.18H170.325V28.125H174.51V28.62H168.765V29.58H174.51V30.12H170.25V31.05H174.51V31.575H169.785V32.52H174.51V33.045H168.72V34.14H182.34V33.045H176.31Z" fill="white"/>
</svg>
